<svg width="15" height="15" viewBox="0 0 15 15" fill="none" xmlns="http://www.w3.org/2000/svg">
<path d="M12.5556 14V2.44444C12.5556 1.6467 11.9089 1 11.1111 1H3.88889C3.09114 1 2.44444 1.6467 2.44444 2.44444V14M12.5556 14L14 14M12.5556 14H8.94444M2.44444 14L1 14M2.44444 14H6.05556M5.33333 3.88887H6.05556M5.33333 6.77776H6.05556M8.94444 3.88887H9.66667M8.94444 6.77776H9.66667M6.05556 14V10.3889C6.05556 9.99 6.37891 9.66665 6.77778 9.66665H8.22222C8.62109 9.66665 8.94444 9.99 8.94444 10.3889V14M6.05556 14H8.94444" stroke="#222222" stroke-width="1.5" stroke-linecap="round" stroke-linejoin="round"/>
</svg>
